<svg width="1280" height="50" viewBox="0 0 1280 50" fill="none" xmlns="http://www.w3.org/2000/svg">
<path d="M20 7H12C5.37258 7 0 12.3726 0 19V27C0 33.6274 5.37258 39 12 39H20C26.6274 39 32 33.6274 32 27V19C32 12.3726 26.6274 7 20 7Z" fill="#CF6F49"/>
<path d="M41.36 30V16H46.5C47.62 16 48.54 16.1933 49.26 16.58C49.9933 16.9533 50.54 17.4667 50.9 18.12C51.26 18.76 51.44 19.4733 51.44 20.26C51.44 21.1133 51.2133 21.8933 50.76 22.6C50.32 23.3067 49.6267 23.82 48.68 24.14L51.58 30H48.64L46.04 24.48H43.92V30H41.36ZM43.92 22.6H46.34C47.1933 22.6 47.82 22.3933 48.22 21.98C48.62 21.5667 48.82 21.02 48.82 20.34C48.82 19.6733 48.62 19.14 48.22 18.74C47.8333 18.34 47.2 18.14 46.32 18.14H43.92V22.6ZM57.9755 30.24C56.9755 30.24 56.0888 30.0267 55.3155 29.6C54.5421 29.1733 53.9355 28.5733 53.4955 27.8C53.0555 27.0267 52.8355 26.1333 52.8355 25.12C52.8355 24.0933 53.0488 23.18 53.4755 22.38C53.9155 21.58 54.5155 20.96 55.2755 20.52C56.0488 20.0667 56.9555 19.84 57.9955 19.84C58.9688 19.84 59.8288 20.0533 60.5755 20.48C61.3221 20.9067 61.9021 21.4933 62.3155 22.24C62.7421 22.9733 62.9555 23.7933 62.9555 24.7C62.9555 24.8467 62.9488 25 62.9355 25.16C62.9355 25.32 62.9288 25.4867 62.9155 25.66H55.3755C55.4288 26.4333 55.6955 27.04 56.1755 27.48C56.6688 27.92 57.2621 28.14 57.9555 28.14C58.4755 28.14 58.9088 28.0267 59.2555 27.8C59.6155 27.56 59.8821 27.2533 60.0555 26.88H62.6555C62.4688 27.5067 62.1555 28.08 61.7155 28.6C61.2888 29.1067 60.7555 29.5067 60.1155 29.8C59.4888 30.0933 58.7755 30.24 57.9755 30.24ZM57.9955 21.92C57.3688 21.92 56.8155 22.1 56.3355 22.46C55.8555 22.8067 55.5488 23.34 55.4155 24.06H60.3555C60.3155 23.4067 60.0755 22.8867 59.6355 22.5C59.1955 22.1133 58.6488 21.92 57.9955 21.92ZM68.5286 30.24C67.6753 30.24 66.9753 30.1067 66.4286 29.84C65.8819 29.56 65.4753 29.1933 65.2086 28.74C64.9419 28.2867 64.8086 27.7867 64.8086 27.24C64.8086 26.32 65.1686 25.5733 65.8886 25C66.6086 24.4267 67.6886 24.14 69.1286 24.14H71.6486V23.9C71.6486 23.22 71.4553 22.72 71.0686 22.4C70.6819 22.08 70.2019 21.92 69.6286 21.92C69.1086 21.92 68.6553 22.0467 68.2686 22.3C67.8819 22.54 67.6419 22.9 67.5486 23.38H65.0486C65.1153 22.66 65.3553 22.0333 65.7686 21.5C66.1953 20.9667 66.7419 20.56 67.4086 20.28C68.0753 19.9867 68.8219 19.84 69.6486 19.84C71.0619 19.84 72.1753 20.1933 72.9886 20.9C73.8019 21.6067 74.2086 22.6067 74.2086 23.9V30H72.0286L71.7886 28.4C71.4953 28.9333 71.0819 29.3733 70.5486 29.72C70.0286 30.0667 69.3553 30.24 68.5286 30.24ZM69.1086 28.24C69.8419 28.24 70.4086 28 70.8086 27.52C71.2219 27.04 71.4819 26.4467 71.5886 25.74H69.4086C68.7286 25.74 68.2419 25.8667 67.9486 26.12C67.6553 26.36 67.5086 26.66 67.5086 27.02C67.5086 27.4067 67.6553 27.7067 67.9486 27.92C68.2419 28.1333 68.6286 28.24 69.1086 28.24ZM76.6516 30V15.6H79.2116V30H76.6516ZM86.6873 30.24C85.674 30.24 84.7807 30.02 84.0073 29.58C83.234 29.14 82.6207 28.5267 82.1673 27.74C81.7273 26.9533 81.5073 26.0533 81.5073 25.04C81.5073 24.0267 81.7273 23.1267 82.1673 22.34C82.6207 21.5533 83.234 20.94 84.0073 20.5C84.7807 20.06 85.674 19.84 86.6873 19.84C87.954 19.84 89.0207 20.1733 89.8873 20.84C90.754 21.4933 91.3073 22.4 91.5473 23.56H88.8473C88.714 23.08 88.4473 22.7067 88.0473 22.44C87.6607 22.16 87.2007 22.02 86.6673 22.02C85.9607 22.02 85.3607 22.2867 84.8673 22.82C84.374 23.3533 84.1273 24.0933 84.1273 25.04C84.1273 25.9867 84.374 26.7267 84.8673 27.26C85.3607 27.7933 85.9607 28.06 86.6673 28.06C87.2007 28.06 87.6607 27.9267 88.0473 27.66C88.4473 27.3933 88.714 27.0133 88.8473 26.52H91.5473C91.3073 27.64 90.754 28.54 89.8873 29.22C89.0207 29.9 87.954 30.24 86.6873 30.24ZM98.5795 30.24C97.6195 30.24 96.7529 30.02 95.9795 29.58C95.2195 29.14 94.6129 28.5333 94.1595 27.76C93.7195 26.9733 93.4995 26.0667 93.4995 25.04C93.4995 24.0133 93.7262 23.1133 94.1795 22.34C94.6329 21.5533 95.2395 20.94 95.9995 20.5C96.7729 20.06 97.6395 19.84 98.5995 19.84C99.5462 19.84 100.4 20.06 101.16 20.5C101.933 20.94 102.54 21.5533 102.98 22.34C103.433 23.1133 103.66 24.0133 103.66 25.04C103.66 26.0667 103.433 26.9733 102.98 27.76C102.54 28.5333 101.933 29.14 101.16 29.58C100.386 30.02 99.5262 30.24 98.5795 30.24ZM98.5795 28.02C99.2462 28.02 99.8262 27.7733 100.32 27.28C100.813 26.7733 101.06 26.0267 101.06 25.04C101.06 24.0533 100.813 23.3133 100.32 22.82C99.8262 22.3133 99.2529 22.06 98.5995 22.06C97.9195 22.06 97.3329 22.3133 96.8395 22.82C96.3595 23.3133 96.1195 24.0533 96.1195 25.04C96.1195 26.0267 96.3595 26.7733 96.8395 27.28C97.3329 27.7733 97.9129 28.02 98.5795 28.02Z" fill="#2A2C1F"/>
<path d="M1121.5 8C1121.5 4.96243 1123.96 2.5 1127 2.5H1274C1277.04 2.5 1279.5 4.96243 1279.5 8V38C1279.5 41.0376 1277.04 43.5 1274 43.5H1127C1123.96 43.5 1121.5 41.0376 1121.5 38V8Z" fill="#CF6F49" stroke="#CF6F49"/>
<path d="M1149.97 16.625V28H1148.46V16.625H1149.97ZM1154.73 21.7422V22.9766H1149.64V21.7422H1154.73ZM1155.51 16.625V17.8594H1149.64V16.625H1155.51ZM1158.66 19.5469V28H1157.2V19.5469H1158.66ZM1157.09 17.3047C1157.09 17.0703 1157.16 16.8724 1157.3 16.7109C1157.45 16.5495 1157.66 16.4688 1157.95 16.4688C1158.22 16.4688 1158.43 16.5495 1158.58 16.7109C1158.73 16.8724 1158.8 17.0703 1158.8 17.3047C1158.8 17.5286 1158.73 17.7214 1158.58 17.8828C1158.43 18.0391 1158.22 18.1172 1157.95 18.1172C1157.66 18.1172 1157.45 18.0391 1157.3 17.8828C1157.16 17.7214 1157.09 17.5286 1157.09 17.3047ZM1162.42 21.3516V28H1160.98V19.5469H1162.34L1162.42 21.3516ZM1162.08 23.4531L1161.48 23.4297C1161.48 22.8516 1161.57 22.3177 1161.73 21.8281C1161.9 21.3333 1162.14 20.9036 1162.44 20.5391C1162.74 20.1745 1163.1 19.8932 1163.52 19.6953C1163.94 19.4922 1164.4 19.3906 1164.91 19.3906C1165.33 19.3906 1165.71 19.4479 1166.04 19.5625C1166.37 19.6719 1166.66 19.849 1166.89 20.0938C1167.13 20.3385 1167.31 20.6562 1167.44 21.0469C1167.56 21.4323 1167.62 21.9036 1167.62 22.4609V28H1166.17V22.4453C1166.17 22.0026 1166.11 21.6484 1165.98 21.3828C1165.85 21.112 1165.66 20.9167 1165.41 20.7969C1165.16 20.6719 1164.85 20.6094 1164.48 20.6094C1164.12 20.6094 1163.8 20.6849 1163.5 20.8359C1163.21 20.987 1162.96 21.1953 1162.74 21.4609C1162.53 21.7266 1162.37 22.0312 1162.25 22.375C1162.14 22.7135 1162.08 23.0729 1162.08 23.4531ZM1175.15 26.3594V16H1176.6V28H1175.27L1175.15 26.3594ZM1169.46 23.8672V23.7031C1169.46 23.0573 1169.54 22.4714 1169.7 21.9453C1169.86 21.4141 1170.08 20.9583 1170.38 20.5781C1170.67 20.1979 1171.02 19.9062 1171.43 19.7031C1171.84 19.4948 1172.3 19.3906 1172.8 19.3906C1173.34 19.3906 1173.8 19.4844 1174.2 19.6719C1174.6 19.8542 1174.93 20.1224 1175.21 20.4766C1175.49 20.8255 1175.71 21.2474 1175.88 21.7422C1176.04 22.237 1176.15 22.7969 1176.21 23.4219V24.1406C1176.15 24.7604 1176.04 25.3177 1175.88 25.8125C1175.71 26.3073 1175.49 26.7292 1175.21 27.0781C1174.93 27.4271 1174.6 27.6953 1174.2 27.8828C1173.79 28.0651 1173.33 28.1562 1172.79 28.1562C1172.29 28.1562 1171.84 28.0495 1171.43 27.8359C1171.02 27.6224 1170.67 27.3229 1170.38 26.9375C1170.08 26.5521 1169.86 26.099 1169.7 25.5781C1169.54 25.0521 1169.46 24.4818 1169.46 23.8672ZM1170.91 23.7031V23.8672C1170.91 24.2891 1170.96 24.6849 1171.04 25.0547C1171.13 25.4245 1171.26 25.75 1171.45 26.0312C1171.63 26.3125 1171.86 26.5339 1172.14 26.6953C1172.42 26.8516 1172.76 26.9297 1173.15 26.9297C1173.63 26.9297 1174.02 26.8281 1174.33 26.625C1174.64 26.4219 1174.89 26.1536 1175.08 25.8203C1175.27 25.487 1175.41 25.125 1175.52 24.7344V22.8516C1175.45 22.5651 1175.36 22.2891 1175.24 22.0234C1175.13 21.7526 1174.98 21.513 1174.79 21.3047C1174.61 21.0911 1174.38 20.9219 1174.11 20.7969C1173.84 20.6719 1173.53 20.6094 1173.16 20.6094C1172.77 20.6094 1172.43 20.6927 1172.14 20.8594C1171.86 21.0208 1171.63 21.2448 1171.45 21.5312C1171.26 21.8125 1171.13 22.1406 1171.04 22.5156C1170.96 22.8854 1170.91 23.2812 1170.91 23.7031ZM1187.8 26.5547V22.2031C1187.8 21.8698 1187.74 21.5807 1187.6 21.3359C1187.47 21.0859 1187.27 20.8932 1187.01 20.7578C1186.74 20.6224 1186.41 20.5547 1186.02 20.5547C1185.66 20.5547 1185.34 20.6172 1185.06 20.7422C1184.79 20.8672 1184.58 21.0312 1184.42 21.2344C1184.27 21.4375 1184.2 21.6562 1184.2 21.8906H1182.75C1182.75 21.5885 1182.83 21.2891 1182.98 20.9922C1183.14 20.6953 1183.36 20.4271 1183.66 20.1875C1183.95 19.9427 1184.31 19.75 1184.72 19.6094C1185.14 19.4635 1185.6 19.3906 1186.11 19.3906C1186.72 19.3906 1187.27 19.4948 1187.73 19.7031C1188.21 19.9115 1188.58 20.2266 1188.84 20.6484C1189.11 21.0651 1189.25 21.5885 1189.25 22.2188V26.1562C1189.25 26.4375 1189.27 26.737 1189.32 27.0547C1189.37 27.3724 1189.45 27.6458 1189.55 27.875V28H1188.04C1187.97 27.8333 1187.91 27.612 1187.87 27.3359C1187.83 27.0547 1187.8 26.7943 1187.8 26.5547ZM1188.05 22.875L1188.07 23.8906H1186.61C1186.2 23.8906 1185.83 23.9245 1185.51 23.9922C1185.18 24.0547 1184.91 24.151 1184.7 24.2812C1184.48 24.4115 1184.31 24.5755 1184.2 24.7734C1184.08 24.9661 1184.02 25.1927 1184.02 25.4531C1184.02 25.7188 1184.08 25.9609 1184.2 26.1797C1184.32 26.3984 1184.5 26.5729 1184.74 26.7031C1184.99 26.8281 1185.29 26.8906 1185.64 26.8906C1186.08 26.8906 1186.47 26.7969 1186.81 26.6094C1187.15 26.4219 1187.42 26.1927 1187.62 25.9219C1187.82 25.651 1187.93 25.388 1187.95 25.1328L1188.56 25.8281C1188.53 26.0469 1188.43 26.2891 1188.27 26.5547C1188.1 26.8203 1187.89 27.0755 1187.62 27.3203C1187.35 27.5599 1187.03 27.7604 1186.66 27.9219C1186.3 28.0781 1185.89 28.1562 1185.43 28.1562C1184.86 28.1562 1184.35 28.0443 1183.92 27.8203C1183.49 27.5964 1183.16 27.2969 1182.92 26.9219C1182.69 26.5417 1182.57 26.1172 1182.57 25.6484C1182.57 25.1953 1182.66 24.7969 1182.84 24.4531C1183.01 24.1042 1183.27 23.8151 1183.6 23.5859C1183.93 23.3516 1184.34 23.1745 1184.8 23.0547C1185.27 22.9349 1185.8 22.875 1186.38 22.875H1188.05ZM1196.94 21.1719V31.25H1195.48V19.5469H1196.81L1196.94 21.1719ZM1202.63 23.7031V23.8672C1202.63 24.4818 1202.56 25.0521 1202.41 25.5781C1202.27 26.099 1202.05 26.5521 1201.77 26.9375C1201.5 27.3229 1201.16 27.6224 1200.75 27.8359C1200.34 28.0495 1199.88 28.1562 1199.35 28.1562C1198.82 28.1562 1198.34 28.0677 1197.93 27.8906C1197.52 27.7135 1197.17 27.4557 1196.88 27.1172C1196.6 26.7786 1196.37 26.3724 1196.2 25.8984C1196.03 25.4245 1195.91 24.8906 1195.85 24.2969V23.4219C1195.91 22.7969 1196.03 22.237 1196.2 21.7422C1196.38 21.2474 1196.6 20.8255 1196.88 20.4766C1197.17 20.1224 1197.52 19.8542 1197.92 19.6719C1198.33 19.4844 1198.8 19.3906 1199.33 19.3906C1199.86 19.3906 1200.33 19.4948 1200.74 19.7031C1201.15 19.9062 1201.5 20.1979 1201.78 20.5781C1202.06 20.9583 1202.27 21.4141 1202.41 21.9453C1202.56 22.4714 1202.63 23.0573 1202.63 23.7031ZM1201.18 23.8672V23.7031C1201.18 23.2812 1201.14 22.8854 1201.05 22.5156C1200.96 22.1406 1200.82 21.8125 1200.63 21.5312C1200.45 21.2448 1200.22 21.0208 1199.93 20.8594C1199.64 20.6927 1199.3 20.6094 1198.91 20.6094C1198.54 20.6094 1198.22 20.6719 1197.95 20.7969C1197.69 20.9219 1197.46 21.0911 1197.27 21.3047C1197.09 21.513 1196.93 21.7526 1196.81 22.0234C1196.7 22.2891 1196.61 22.5651 1196.55 22.8516V24.875C1196.66 25.2396 1196.8 25.5833 1196.99 25.9062C1197.18 26.224 1197.43 26.4818 1197.74 26.6797C1198.05 26.8724 1198.45 26.9688 1198.92 26.9688C1199.31 26.9688 1199.65 26.888 1199.93 26.7266C1200.22 26.5599 1200.45 26.3333 1200.63 26.0469C1200.82 25.7604 1200.96 25.4323 1201.05 25.0625C1201.14 24.6875 1201.18 24.2891 1201.18 23.8672ZM1205.92 20.875V28H1204.48V19.5469H1205.88L1205.92 20.875ZM1208.56 19.5L1208.55 20.8438C1208.43 20.8177 1208.32 20.8021 1208.21 20.7969C1208.11 20.7865 1207.99 20.7812 1207.85 20.7812C1207.52 20.7812 1207.22 20.8333 1206.97 20.9375C1206.71 21.0417 1206.5 21.1875 1206.32 21.375C1206.14 21.5625 1206 21.7865 1205.9 22.0469C1205.8 22.3021 1205.73 22.5833 1205.7 22.8906L1205.3 23.125C1205.3 22.6146 1205.35 22.1354 1205.45 21.6875C1205.55 21.2396 1205.71 20.8438 1205.92 20.5C1206.14 20.151 1206.41 19.8802 1206.73 19.6875C1207.07 19.4896 1207.46 19.3906 1207.92 19.3906C1208.03 19.3906 1208.15 19.4036 1208.28 19.4297C1208.42 19.4505 1208.51 19.474 1208.56 19.5ZM1209.36 23.8672V23.6875C1209.36 23.0781 1209.45 22.513 1209.62 21.9922C1209.8 21.4661 1210.06 21.0104 1210.39 20.625C1210.72 20.2344 1211.13 19.9323 1211.6 19.7188C1212.08 19.5 1212.61 19.3906 1213.2 19.3906C1213.79 19.3906 1214.32 19.5 1214.8 19.7188C1215.28 19.9323 1215.68 20.2344 1216.02 20.625C1216.35 21.0104 1216.61 21.4661 1216.79 21.9922C1216.97 22.513 1217.05 23.0781 1217.05 23.6875V23.8672C1217.05 24.4766 1216.97 25.0417 1216.79 25.5625C1216.61 26.0833 1216.35 26.5391 1216.02 26.9297C1215.68 27.3151 1215.28 27.6172 1214.8 27.8359C1214.34 28.0495 1213.8 28.1562 1213.21 28.1562C1212.62 28.1562 1212.08 28.0495 1211.61 27.8359C1211.14 27.6172 1210.73 27.3151 1210.39 26.9297C1210.06 26.5391 1209.8 26.0833 1209.62 25.5625C1209.45 25.0417 1209.36 24.4766 1209.36 23.8672ZM1210.8 23.6875V23.8672C1210.8 24.2891 1210.85 24.6875 1210.95 25.0625C1211.05 25.4323 1211.2 25.7604 1211.4 26.0469C1211.6 26.3333 1211.85 26.5599 1212.16 26.7266C1212.46 26.888 1212.81 26.9688 1213.21 26.9688C1213.61 26.9688 1213.95 26.888 1214.25 26.7266C1214.55 26.5599 1214.8 26.3333 1215 26.0469C1215.2 25.7604 1215.35 25.4323 1215.45 25.0625C1215.55 24.6875 1215.6 24.2891 1215.6 23.8672V23.6875C1215.6 23.2708 1215.55 22.8776 1215.45 22.5078C1215.35 22.1328 1215.2 21.8021 1214.99 21.5156C1214.79 21.224 1214.54 20.9948 1214.24 20.8281C1213.95 20.6615 1213.6 20.5781 1213.2 20.5781C1212.8 20.5781 1212.45 20.6615 1212.15 20.8281C1211.85 20.9948 1211.6 21.224 1211.4 21.5156C1211.2 21.8021 1211.05 22.1328 1210.95 22.5078C1210.85 22.8776 1210.8 23.2708 1210.8 23.6875ZM1220.31 21.1719V31.25H1218.86V19.5469H1220.19L1220.31 21.1719ZM1226.01 23.7031V23.8672C1226.01 24.4818 1225.93 25.0521 1225.79 25.5781C1225.64 26.099 1225.43 26.5521 1225.15 26.9375C1224.87 27.3229 1224.53 27.6224 1224.12 27.8359C1223.72 28.0495 1223.25 28.1562 1222.73 28.1562C1222.19 28.1562 1221.72 28.0677 1221.3 27.8906C1220.89 27.7135 1220.54 27.4557 1220.26 27.1172C1219.97 26.7786 1219.74 26.3724 1219.57 25.8984C1219.4 25.4245 1219.29 24.8906 1219.23 24.2969V23.4219C1219.29 22.7969 1219.41 22.237 1219.58 21.7422C1219.75 21.2474 1219.98 20.8255 1220.26 20.4766C1220.54 20.1224 1220.89 19.8542 1221.3 19.6719C1221.7 19.4844 1222.17 19.3906 1222.7 19.3906C1223.23 19.3906 1223.71 19.4948 1224.12 19.7031C1224.53 19.9062 1224.88 20.1979 1225.16 20.5781C1225.44 20.9583 1225.65 21.4141 1225.79 21.9453C1225.93 22.4714 1226.01 23.0573 1226.01 23.7031ZM1224.55 23.8672V23.7031C1224.55 23.2812 1224.51 22.8854 1224.42 22.5156C1224.33 22.1406 1224.2 21.8125 1224.01 21.5312C1223.83 21.2448 1223.59 21.0208 1223.3 20.8594C1223.02 20.6927 1222.68 20.6094 1222.28 20.6094C1221.92 20.6094 1221.6 20.6719 1221.33 20.7969C1221.06 20.9219 1220.84 21.0911 1220.65 21.3047C1220.46 21.513 1220.31 21.7526 1220.19 22.0234C1220.07 22.2891 1219.99 22.5651 1219.93 22.8516V24.875C1220.03 25.2396 1220.18 25.5833 1220.37 25.9062C1220.55 26.224 1220.8 26.4818 1221.12 26.6797C1221.43 26.8724 1221.82 26.9688 1222.3 26.9688C1222.69 26.9688 1223.02 26.888 1223.3 26.7266C1223.59 26.5599 1223.83 26.3333 1224.01 26.0469C1224.2 25.7604 1224.33 25.4323 1224.42 25.0625C1224.51 24.6875 1224.55 24.2891 1224.55 23.8672ZM1231.36 28.1562C1230.77 28.1562 1230.24 28.0573 1229.76 27.8594C1229.28 27.6562 1228.88 27.3724 1228.53 27.0078C1228.19 26.6432 1227.93 26.2109 1227.75 25.7109C1227.57 25.2109 1227.48 24.6641 1227.48 24.0703V23.7422C1227.48 23.0547 1227.58 22.4427 1227.78 21.9062C1227.98 21.3646 1228.26 20.9062 1228.61 20.5312C1228.96 20.1562 1229.35 19.8724 1229.8 19.6797C1230.24 19.487 1230.7 19.3906 1231.17 19.3906C1231.78 19.3906 1232.3 19.4948 1232.73 19.7031C1233.18 19.9115 1233.54 20.2031 1233.82 20.5781C1234.1 20.9479 1234.31 21.3854 1234.45 21.8906C1234.58 22.3906 1234.65 22.9375 1234.65 23.5312V24.1797H1228.34V23H1233.2V22.8906C1233.18 22.5156 1233.1 22.151 1232.97 21.7969C1232.84 21.4427 1232.63 21.151 1232.34 20.9219C1232.06 20.6927 1231.67 20.5781 1231.17 20.5781C1230.84 20.5781 1230.54 20.6484 1230.27 20.7891C1229.99 20.9245 1229.75 21.1276 1229.55 21.3984C1229.36 21.6693 1229.2 22 1229.09 22.3906C1228.98 22.7812 1228.93 23.2318 1228.93 23.7422V24.0703C1228.93 24.4714 1228.98 24.849 1229.09 25.2031C1229.21 25.5521 1229.37 25.8594 1229.59 26.125C1229.8 26.3906 1230.07 26.599 1230.38 26.75C1230.69 26.901 1231.04 26.9766 1231.44 26.9766C1231.95 26.9766 1232.38 26.8724 1232.73 26.6641C1233.09 26.4557 1233.4 26.1771 1233.66 25.8281L1234.54 26.5234C1234.36 26.7995 1234.12 27.0625 1233.84 27.3125C1233.56 27.5625 1233.22 27.7656 1232.8 27.9219C1232.4 28.0781 1231.92 28.1562 1231.36 28.1562ZM1237.78 20.875V28H1236.34V19.5469H1237.74L1237.78 20.875ZM1240.42 19.5L1240.41 20.8438C1240.29 20.8177 1240.18 20.8021 1240.07 20.7969C1239.97 20.7865 1239.85 20.7812 1239.71 20.7812C1239.38 20.7812 1239.08 20.8333 1238.83 20.9375C1238.57 21.0417 1238.36 21.1875 1238.18 21.375C1238 21.5625 1237.86 21.7865 1237.76 22.0469C1237.66 22.3021 1237.59 22.5833 1237.56 22.8906L1237.16 23.125C1237.16 22.6146 1237.21 22.1354 1237.3 21.6875C1237.41 21.2396 1237.57 20.8438 1237.78 20.5C1237.99 20.151 1238.27 19.8802 1238.59 19.6875C1238.93 19.4896 1239.32 19.3906 1239.78 19.3906C1239.89 19.3906 1240.01 19.4036 1240.14 19.4297C1240.28 19.4505 1240.37 19.474 1240.42 19.5ZM1245.69 19.5469V20.6562H1241.12V19.5469H1245.69ZM1242.66 17.4922H1244.11V25.9062C1244.11 26.1927 1244.15 26.4089 1244.24 26.5547C1244.33 26.7005 1244.45 26.7969 1244.59 26.8438C1244.73 26.8906 1244.88 26.9141 1245.04 26.9141C1245.16 26.9141 1245.28 26.9036 1245.41 26.8828C1245.55 26.8568 1245.65 26.8359 1245.72 26.8203L1245.73 28C1245.61 28.0365 1245.46 28.0703 1245.27 28.1016C1245.09 28.138 1244.87 28.1562 1244.61 28.1562C1244.26 28.1562 1243.93 28.0859 1243.63 27.9453C1243.34 27.8047 1243.1 27.5703 1242.92 27.2422C1242.75 26.9089 1242.66 26.4609 1242.66 25.8984V17.4922ZM1249.76 27.125L1252.11 19.5469H1253.66L1250.27 29.3047C1250.19 29.513 1250.08 29.737 1249.95 29.9766C1249.83 30.2214 1249.67 30.4531 1249.47 30.6719C1249.27 30.8906 1249.03 31.0677 1248.75 31.2031C1248.47 31.3438 1248.14 31.4141 1247.76 31.4141C1247.64 31.4141 1247.5 31.3984 1247.32 31.3672C1247.14 31.3359 1247.02 31.3099 1246.95 31.2891L1246.94 30.1172C1246.98 30.1224 1247.04 30.1276 1247.13 30.1328C1247.23 30.1432 1247.29 30.1484 1247.33 30.1484C1247.66 30.1484 1247.93 30.1042 1248.16 30.0156C1248.39 29.9323 1248.59 29.7891 1248.74 29.5859C1248.9 29.388 1249.04 29.1146 1249.16 28.7656L1249.76 27.125ZM1248.03 19.5469L1250.23 26.1094L1250.6 27.6328L1249.56 28.1641L1246.45 19.5469H1248.03Z" fill="white"/>
<g filter="url(#filter0_d_5_13)">
<path d="M1005 8C1005 4.68629 1007.69 2 1011 2H1099C1102.31 2 1105 4.68629 1105 8V38C1105 41.3137 1102.31 44 1099 44H1011C1007.69 44 1005 41.3137 1005 38V8Z" fill="white"/>
<path d="M1005.5 8C1005.5 4.96243 1007.96 2.5 1011 2.5H1099C1102.04 2.5 1104.5 4.96243 1104.5 8V38C1104.5 41.0376 1102.04 43.5 1099 43.5H1011C1007.96 43.5 1005.5 41.0376 1005.5 38V8Z" stroke="#E7E8E3"/>
</g>
<path d="M1041 18H1039.32C1039.32 17.375 1039.16 16.8151 1038.85 16.3203C1038.57 15.8255 1038.17 15.4349 1037.68 15.1484C1037.18 14.8359 1036.62 14.6797 1036 14.6797C1035.38 14.6797 1034.82 14.8359 1034.32 15.1484C1033.83 15.4349 1033.42 15.8255 1033.11 16.3203C1032.82 16.8151 1032.68 17.375 1032.68 18H1031C1030.53 18 1030.13 18.1693 1029.79 18.5078C1029.48 18.8203 1029.32 19.2109 1029.32 19.6797V29.6797C1029.32 30.1224 1029.48 30.513 1029.79 30.8516C1030.13 31.1641 1030.53 31.3203 1031 31.3203H1041C1041.47 31.3203 1041.86 31.1641 1042.17 30.8516C1042.51 30.513 1042.68 30.1224 1042.68 29.6797V19.6797C1042.68 19.2109 1042.51 18.8203 1042.17 18.5078C1041.86 18.1693 1041.47 18 1041 18ZM1034.32 21.3203C1034.32 21.5547 1034.24 21.763 1034.09 21.9453C1033.93 22.1016 1033.73 22.1797 1033.5 22.1797C1033.27 22.1797 1033.07 22.1016 1032.91 21.9453C1032.76 21.763 1032.68 21.5547 1032.68 21.3203V19.6797H1034.32V21.3203ZM1036 16.3203C1036.47 16.3203 1036.86 16.4896 1037.17 16.8281C1037.51 17.1406 1037.68 17.5312 1037.68 18H1034.32C1034.32 17.5312 1034.48 17.1406 1034.79 16.8281C1035.13 16.4896 1035.53 16.3203 1036 16.3203ZM1039.32 21.3203C1039.32 21.5547 1039.24 21.763 1039.09 21.9453C1038.93 22.1016 1038.73 22.1797 1038.5 22.1797C1038.27 22.1797 1038.07 22.1016 1037.91 21.9453C1037.76 21.763 1037.68 21.5547 1037.68 21.3203V19.6797H1039.32V21.3203Z" fill="#2A2C1F"/>
<path d="M1060.1 24.3828H1061.6C1061.52 25.1016 1061.32 25.7448 1060.98 26.3125C1060.65 26.8802 1060.18 27.3307 1059.57 27.6641C1058.96 27.9922 1058.2 28.1562 1057.29 28.1562C1056.62 28.1562 1056.02 28.0312 1055.47 27.7812C1054.93 27.5312 1054.46 27.1771 1054.07 26.7188C1053.68 26.2552 1053.38 25.7005 1053.16 25.0547C1052.96 24.4036 1052.85 23.6797 1052.85 22.8828V21.75C1052.85 20.9531 1052.96 20.2318 1053.16 19.5859C1053.38 18.9349 1053.68 18.3776 1054.08 17.9141C1054.48 17.4505 1054.96 17.0938 1055.52 16.8438C1056.09 16.5938 1056.72 16.4688 1057.42 16.4688C1058.28 16.4688 1059.01 16.6302 1059.6 16.9531C1060.2 17.276 1060.66 17.724 1060.98 18.2969C1061.32 18.8646 1061.52 19.5234 1061.6 20.2734H1060.1C1060.03 19.7422 1059.89 19.2865 1059.7 18.9062C1059.5 18.5208 1059.22 18.224 1058.85 18.0156C1058.49 17.8073 1058.01 17.7031 1057.42 17.7031C1056.92 17.7031 1056.47 17.7995 1056.09 17.9922C1055.71 18.1849 1055.39 18.4583 1055.12 18.8125C1054.87 19.1667 1054.68 19.5911 1054.55 20.0859C1054.42 20.5807 1054.35 21.1302 1054.35 21.7344V22.8828C1054.35 23.4401 1054.41 23.9635 1054.52 24.4531C1054.64 24.9427 1054.82 25.3724 1055.06 25.7422C1055.3 26.112 1055.61 26.4036 1055.98 26.6172C1056.35 26.8255 1056.78 26.9297 1057.29 26.9297C1057.93 26.9297 1058.44 26.8281 1058.82 26.625C1059.2 26.4219 1059.49 26.1302 1059.68 25.75C1059.88 25.3698 1060.02 24.9141 1060.1 24.3828ZM1068.42 26.5547V22.2031C1068.42 21.8698 1068.35 21.5807 1068.22 21.3359C1068.09 21.0859 1067.89 20.8932 1067.62 20.7578C1067.36 20.6224 1067.03 20.5547 1066.64 20.5547C1066.28 20.5547 1065.96 20.6172 1065.68 20.7422C1065.41 20.8672 1065.2 21.0312 1065.04 21.2344C1064.89 21.4375 1064.81 21.6562 1064.81 21.8906H1063.37C1063.37 21.5885 1063.45 21.2891 1063.6 20.9922C1063.76 20.6953 1063.98 20.4271 1064.27 20.1875C1064.57 19.9427 1064.92 19.75 1065.34 19.6094C1065.75 19.4635 1066.22 19.3906 1066.73 19.3906C1067.34 19.3906 1067.88 19.4948 1068.35 19.7031C1068.83 19.9115 1069.2 20.2266 1069.46 20.6484C1069.73 21.0651 1069.87 21.5885 1069.87 22.2188V26.1562C1069.87 26.4375 1069.89 26.737 1069.94 27.0547C1069.99 27.3724 1070.07 27.6458 1070.16 27.875V28H1068.66C1068.58 27.8333 1068.53 27.612 1068.48 27.3359C1068.44 27.0547 1068.42 26.7943 1068.42 26.5547ZM1068.67 22.875L1068.69 23.8906H1067.23C1066.82 23.8906 1066.45 23.9245 1066.12 23.9922C1065.8 24.0547 1065.53 24.151 1065.31 24.2812C1065.09 24.4115 1064.93 24.5755 1064.81 24.7734C1064.7 24.9661 1064.64 25.1927 1064.64 25.4531C1064.64 25.7188 1064.7 25.9609 1064.82 26.1797C1064.94 26.3984 1065.12 26.5729 1065.36 26.7031C1065.6 26.8281 1065.9 26.8906 1066.26 26.8906C1066.7 26.8906 1067.09 26.7969 1067.43 26.6094C1067.77 26.4219 1068.04 26.1927 1068.23 25.9219C1068.44 25.651 1068.55 25.388 1068.56 25.1328L1069.18 25.8281C1069.14 26.0469 1069.04 26.2891 1068.88 26.5547C1068.72 26.8203 1068.51 27.0755 1068.23 27.3203C1067.97 27.5599 1067.65 27.7604 1067.28 27.9219C1066.92 28.0781 1066.51 28.1562 1066.05 28.1562C1065.47 28.1562 1064.97 28.0443 1064.54 27.8203C1064.11 27.5964 1063.78 27.2969 1063.54 26.9219C1063.3 26.5417 1063.19 26.1172 1063.19 25.6484C1063.19 25.1953 1063.28 24.7969 1063.45 24.4531C1063.63 24.1042 1063.89 23.8151 1064.22 23.5859C1064.55 23.3516 1064.95 23.1745 1065.42 23.0547C1065.89 22.9349 1066.41 22.875 1066.99 22.875H1068.67ZM1073.59 20.875V28H1072.14V19.5469H1073.55L1073.59 20.875ZM1076.23 19.5L1076.22 20.8438C1076.1 20.8177 1075.98 20.8021 1075.88 20.7969C1075.77 20.7865 1075.65 20.7812 1075.52 20.7812C1075.18 20.7812 1074.89 20.8333 1074.63 20.9375C1074.38 21.0417 1074.16 21.1875 1073.98 21.375C1073.81 21.5625 1073.67 21.7865 1073.56 22.0469C1073.46 22.3021 1073.4 22.5833 1073.37 22.8906L1072.96 23.125C1072.96 22.6146 1073.01 22.1354 1073.11 21.6875C1073.21 21.2396 1073.37 20.8438 1073.59 20.5C1073.8 20.151 1074.07 19.8802 1074.4 19.6875C1074.73 19.4896 1075.13 19.3906 1075.59 19.3906C1075.69 19.3906 1075.81 19.4036 1075.95 19.4297C1076.08 19.4505 1076.17 19.474 1076.23 19.5ZM1081.49 19.5469V20.6562H1076.92V19.5469H1081.49ZM1078.47 17.4922H1079.91V25.9062C1079.91 26.1927 1079.96 26.4089 1080.05 26.5547C1080.14 26.7005 1080.25 26.7969 1080.39 26.8438C1080.53 26.8906 1080.68 26.9141 1080.84 26.9141C1080.96 26.9141 1081.09 26.9036 1081.22 26.8828C1081.35 26.8568 1081.46 26.8359 1081.52 26.8203L1081.53 28C1081.42 28.0365 1081.27 28.0703 1081.08 28.1016C1080.9 28.138 1080.67 28.1562 1080.41 28.1562C1080.06 28.1562 1079.73 28.0859 1079.44 27.9453C1079.14 27.8047 1078.9 27.5703 1078.73 27.2422C1078.55 26.9089 1078.47 26.4609 1078.47 25.8984V17.4922Z" fill="#2A2C1F"/>
<path d="M604.516 23.5391H601.477V22.3125H604.516C605.104 22.3125 605.581 22.2188 605.945 22.0312C606.31 21.8438 606.576 21.5833 606.742 21.25C606.914 20.9167 607 20.5365 607 20.1094C607 19.7188 606.914 19.3516 606.742 19.0078C606.576 18.6641 606.31 18.388 605.945 18.1797C605.581 17.9661 605.104 17.8594 604.516 17.8594H601.828V28H600.32V16.625H604.516C605.375 16.625 606.102 16.7734 606.695 17.0703C607.289 17.3672 607.74 17.7786 608.047 18.3047C608.354 18.8255 608.508 19.4219 608.508 20.0938C608.508 20.8229 608.354 21.4453 608.047 21.9609C607.74 22.4766 607.289 22.8698 606.695 23.1406C606.102 23.4062 605.375 23.5391 604.516 23.5391ZM611.641 20.875V28H610.195V19.5469H611.602L611.641 20.875ZM614.281 19.5L614.273 20.8438C614.154 20.8177 614.039 20.8021 613.93 20.7969C613.826 20.7865 613.706 20.7812 613.57 20.7812C613.237 20.7812 612.943 20.8333 612.688 20.9375C612.432 21.0417 612.216 21.1875 612.039 21.375C611.862 21.5625 611.721 21.7865 611.617 22.0469C611.518 22.3021 611.453 22.5833 611.422 22.8906L611.016 23.125C611.016 22.6146 611.065 22.1354 611.164 21.6875C611.268 21.2396 611.427 20.8438 611.641 20.5C611.854 20.151 612.125 19.8802 612.453 19.6875C612.786 19.4896 613.182 19.3906 613.641 19.3906C613.745 19.3906 613.865 19.4036 614 19.4297C614.135 19.4505 614.229 19.474 614.281 19.5ZM615.078 23.8672V23.6875C615.078 23.0781 615.167 22.513 615.344 21.9922C615.521 21.4661 615.776 21.0104 616.109 20.625C616.443 20.2344 616.846 19.9323 617.32 19.7188C617.794 19.5 618.326 19.3906 618.914 19.3906C619.508 19.3906 620.042 19.5 620.516 19.7188C620.995 19.9323 621.401 20.2344 621.734 20.625C622.073 21.0104 622.331 21.4661 622.508 21.9922C622.685 22.513 622.773 23.0781 622.773 23.6875V23.8672C622.773 24.4766 622.685 25.0417 622.508 25.5625C622.331 26.0833 622.073 26.5391 621.734 26.9297C621.401 27.3151 620.997 27.6172 620.523 27.8359C620.055 28.0495 619.523 28.1562 618.93 28.1562C618.336 28.1562 617.802 28.0495 617.328 27.8359C616.854 27.6172 616.448 27.3151 616.109 26.9297C615.776 26.5391 615.521 26.0833 615.344 25.5625C615.167 25.0417 615.078 24.4766 615.078 23.8672ZM616.523 23.6875V23.8672C616.523 24.2891 616.573 24.6875 616.672 25.0625C616.771 25.4323 616.919 25.7604 617.117 26.0469C617.32 26.3333 617.573 26.5599 617.875 26.7266C618.177 26.888 618.529 26.9688 618.93 26.9688C619.326 26.9688 619.672 26.888 619.969 26.7266C620.271 26.5599 620.521 26.3333 620.719 26.0469C620.917 25.7604 621.065 25.4323 621.164 25.0625C621.268 24.6875 621.32 24.2891 621.32 23.8672V23.6875C621.32 23.2708 621.268 22.8776 621.164 22.5078C621.065 22.1328 620.914 21.8021 620.711 21.5156C620.513 21.224 620.263 20.9948 619.961 20.8281C619.664 20.6615 619.315 20.5781 618.914 20.5781C618.518 20.5781 618.169 20.6615 617.867 20.8281C617.57 20.9948 617.32 21.224 617.117 21.5156C616.919 21.8021 616.771 22.1328 616.672 22.5078C616.573 22.8776 616.523 23.2708 616.523 23.6875ZM626.031 21.1719V31.25H624.578V19.5469H625.906L626.031 21.1719ZM631.727 23.7031V23.8672C631.727 24.4818 631.654 25.0521 631.508 25.5781C631.362 26.099 631.148 26.5521 630.867 26.9375C630.591 27.3229 630.25 27.6224 629.844 27.8359C629.438 28.0495 628.971 28.1562 628.445 28.1562C627.909 28.1562 627.435 28.0677 627.023 27.8906C626.612 27.7135 626.263 27.4557 625.977 27.1172C625.69 26.7786 625.461 26.3724 625.289 25.8984C625.122 25.4245 625.008 24.8906 624.945 24.2969V23.4219C625.008 22.7969 625.125 22.237 625.297 21.7422C625.469 21.2474 625.695 20.8255 625.977 20.4766C626.263 20.1224 626.609 19.8542 627.016 19.6719C627.422 19.4844 627.891 19.3906 628.422 19.3906C628.953 19.3906 629.424 19.4948 629.836 19.7031C630.247 19.9062 630.594 20.1979 630.875 20.5781C631.156 20.9583 631.367 21.4141 631.508 21.9453C631.654 22.4714 631.727 23.0573 631.727 23.7031ZM630.273 23.8672V23.7031C630.273 23.2812 630.229 22.8854 630.141 22.5156C630.052 22.1406 629.914 21.8125 629.727 21.5312C629.544 21.2448 629.31 21.0208 629.023 20.8594C628.737 20.6927 628.396 20.6094 628 20.6094C627.635 20.6094 627.318 20.6719 627.047 20.7969C626.781 20.9219 626.555 21.0911 626.367 21.3047C626.18 21.513 626.026 21.7526 625.906 22.0234C625.792 22.2891 625.706 22.5651 625.648 22.8516V24.875C625.753 25.2396 625.898 25.5833 626.086 25.9062C626.273 26.224 626.523 26.4818 626.836 26.6797C627.148 26.8724 627.542 26.9688 628.016 26.9688C628.406 26.9688 628.742 26.888 629.023 26.7266C629.31 26.5599 629.544 26.3333 629.727 26.0469C629.914 25.7604 630.052 25.4323 630.141 25.0625C630.229 24.6875 630.273 24.2891 630.273 23.8672ZM637.078 28.1562C636.49 28.1562 635.956 28.0573 635.477 27.8594C635.003 27.6562 634.594 27.3724 634.25 27.0078C633.911 26.6432 633.651 26.2109 633.469 25.7109C633.286 25.2109 633.195 24.6641 633.195 24.0703V23.7422C633.195 23.0547 633.297 22.4427 633.5 21.9062C633.703 21.3646 633.979 20.9062 634.328 20.5312C634.677 20.1562 635.073 19.8724 635.516 19.6797C635.958 19.487 636.417 19.3906 636.891 19.3906C637.495 19.3906 638.016 19.4948 638.453 19.7031C638.896 19.9115 639.258 20.2031 639.539 20.5781C639.82 20.9479 640.029 21.3854 640.164 21.8906C640.299 22.3906 640.367 22.9375 640.367 23.5312V24.1797H634.055V23H638.922V22.8906C638.901 22.5156 638.823 22.151 638.688 21.7969C638.557 21.4427 638.349 21.151 638.062 20.9219C637.776 20.6927 637.385 20.5781 636.891 20.5781C636.562 20.5781 636.26 20.6484 635.984 20.7891C635.708 20.9245 635.471 21.1276 635.273 21.3984C635.076 21.6693 634.922 22 634.812 22.3906C634.703 22.7812 634.648 23.2318 634.648 23.7422V24.0703C634.648 24.4714 634.703 24.849 634.812 25.2031C634.927 25.5521 635.091 25.8594 635.305 26.125C635.523 26.3906 635.786 26.599 636.094 26.75C636.406 26.901 636.76 26.9766 637.156 26.9766C637.667 26.9766 638.099 26.8724 638.453 26.6641C638.807 26.4557 639.117 26.1771 639.383 25.8281L640.258 26.5234C640.076 26.7995 639.844 27.0625 639.562 27.3125C639.281 27.5625 638.935 27.7656 638.523 27.9219C638.117 28.0781 637.635 28.1562 637.078 28.1562ZM643.5 20.875V28H642.055V19.5469H643.461L643.5 20.875ZM646.141 19.5L646.133 20.8438C646.013 20.8177 645.898 20.8021 645.789 20.7969C645.685 20.7865 645.565 20.7812 645.43 20.7812C645.096 20.7812 644.802 20.8333 644.547 20.9375C644.292 21.0417 644.076 21.1875 643.898 21.375C643.721 21.5625 643.581 21.7865 643.477 22.0469C643.378 22.3021 643.312 22.5833 643.281 22.8906L642.875 23.125C642.875 22.6146 642.924 22.1354 643.023 21.6875C643.128 21.2396 643.286 20.8438 643.5 20.5C643.714 20.151 643.984 19.8802 644.312 19.6875C644.646 19.4896 645.042 19.3906 645.5 19.3906C645.604 19.3906 645.724 19.4036 645.859 19.4297C645.995 19.4505 646.089 19.474 646.141 19.5ZM651.406 19.5469V20.6562H646.836V19.5469H651.406ZM648.383 17.4922H649.828V25.9062C649.828 26.1927 649.872 26.4089 649.961 26.5547C650.049 26.7005 650.164 26.7969 650.305 26.8438C650.445 26.8906 650.596 26.9141 650.758 26.9141C650.878 26.9141 651.003 26.9036 651.133 26.8828C651.268 26.8568 651.37 26.8359 651.438 26.8203L651.445 28C651.331 28.0365 651.18 28.0703 650.992 28.1016C650.81 28.138 650.589 28.1562 650.328 28.1562C649.974 28.1562 649.648 28.0859 649.352 27.9453C649.055 27.8047 648.818 27.5703 648.641 27.2422C648.469 26.9089 648.383 26.4609 648.383 25.8984V17.4922ZM654.672 19.5469V28H653.219V19.5469H654.672ZM653.109 17.3047C653.109 17.0703 653.18 16.8724 653.32 16.7109C653.466 16.5495 653.68 16.4688 653.961 16.4688C654.237 16.4688 654.448 16.5495 654.594 16.7109C654.745 16.8724 654.82 17.0703 654.82 17.3047C654.82 17.5286 654.745 17.7214 654.594 17.8828C654.448 18.0391 654.237 18.1172 653.961 18.1172C653.68 18.1172 653.466 18.0391 653.32 17.8828C653.18 17.7214 653.109 17.5286 653.109 17.3047ZM660.5 28.1562C659.911 28.1562 659.378 28.0573 658.898 27.8594C658.424 27.6562 658.016 27.3724 657.672 27.0078C657.333 26.6432 657.073 26.2109 656.891 25.7109C656.708 25.2109 656.617 24.6641 656.617 24.0703V23.7422C656.617 23.0547 656.719 22.4427 656.922 21.9062C657.125 21.3646 657.401 20.9062 657.75 20.5312C658.099 20.1562 658.495 19.8724 658.938 19.6797C659.38 19.487 659.839 19.3906 660.312 19.3906C660.917 19.3906 661.438 19.4948 661.875 19.7031C662.318 19.9115 662.68 20.2031 662.961 20.5781C663.242 20.9479 663.451 21.3854 663.586 21.8906C663.721 22.3906 663.789 22.9375 663.789 23.5312V24.1797H657.477V23H662.344V22.8906C662.323 22.5156 662.245 22.151 662.109 21.7969C661.979 21.4427 661.771 21.151 661.484 20.9219C661.198 20.6927 660.807 20.5781 660.312 20.5781C659.984 20.5781 659.682 20.6484 659.406 20.7891C659.13 20.9245 658.893 21.1276 658.695 21.3984C658.497 21.6693 658.344 22 658.234 22.3906C658.125 22.7812 658.07 23.2318 658.07 23.7422V24.0703C658.07 24.4714 658.125 24.849 658.234 25.2031C658.349 25.5521 658.513 25.8594 658.727 26.125C658.945 26.3906 659.208 26.599 659.516 26.75C659.828 26.901 660.182 26.9766 660.578 26.9766C661.089 26.9766 661.521 26.8724 661.875 26.6641C662.229 26.4557 662.539 26.1771 662.805 25.8281L663.68 26.5234C663.497 26.7995 663.266 27.0625 662.984 27.3125C662.703 27.5625 662.357 27.7656 661.945 27.9219C661.539 28.0781 661.057 28.1562 660.5 28.1562ZM670.398 25.7578C670.398 25.5495 670.352 25.3568 670.258 25.1797C670.169 24.9974 669.984 24.8333 669.703 24.6875C669.427 24.5365 669.01 24.4062 668.453 24.2969C667.984 24.1979 667.56 24.0807 667.18 23.9453C666.805 23.8099 666.484 23.6458 666.219 23.4531C665.958 23.2604 665.758 23.0339 665.617 22.7734C665.477 22.513 665.406 22.2083 665.406 21.8594C665.406 21.526 665.479 21.2109 665.625 20.9141C665.776 20.6172 665.987 20.3542 666.258 20.125C666.534 19.8958 666.865 19.7161 667.25 19.5859C667.635 19.4557 668.065 19.3906 668.539 19.3906C669.216 19.3906 669.794 19.5104 670.273 19.75C670.753 19.9896 671.12 20.3099 671.375 20.7109C671.63 21.1068 671.758 21.5469 671.758 22.0312H670.312C670.312 21.7969 670.242 21.5703 670.102 21.3516C669.966 21.1276 669.766 20.9427 669.5 20.7969C669.24 20.651 668.919 20.5781 668.539 20.5781C668.138 20.5781 667.812 20.6406 667.562 20.7656C667.318 20.8854 667.138 21.0391 667.023 21.2266C666.914 21.4141 666.859 21.612 666.859 21.8203C666.859 21.9766 666.885 22.1172 666.938 22.2422C666.995 22.362 667.094 22.474 667.234 22.5781C667.375 22.6771 667.573 22.7708 667.828 22.8594C668.083 22.9479 668.409 23.0365 668.805 23.125C669.497 23.2812 670.068 23.4688 670.516 23.6875C670.964 23.9062 671.297 24.1745 671.516 24.4922C671.734 24.8099 671.844 25.1953 671.844 25.6484C671.844 26.0182 671.766 26.3568 671.609 26.6641C671.458 26.9714 671.237 27.237 670.945 27.4609C670.659 27.6797 670.315 27.8516 669.914 27.9766C669.518 28.0964 669.073 28.1562 668.578 28.1562C667.833 28.1562 667.203 28.0234 666.688 27.7578C666.172 27.4922 665.781 27.1484 665.516 26.7266C665.25 26.3047 665.117 25.8594 665.117 25.3906H666.57C666.591 25.7865 666.706 26.1016 666.914 26.3359C667.122 26.5651 667.378 26.7292 667.68 26.8281C667.982 26.9219 668.281 26.9688 668.578 26.9688C668.974 26.9688 669.305 26.9167 669.57 26.8125C669.841 26.7083 670.047 26.5651 670.188 26.3828C670.328 26.2005 670.398 25.9922 670.398 25.7578Z" fill="#222222"/>
<path d="M695.828 20.1484L697 21.3203L692 26.3203L687 21.3203L688.172 20.1484L692 23.9766L695.828 20.1484Z" fill="#222222"/>
<path d="M739.531 17.6328L735.766 28H734.227L738.562 16.625H739.555L739.531 17.6328ZM742.688 28L738.914 17.6328L738.891 16.625H739.883L744.234 28H742.688ZM742.492 23.7891V25.0234H736.102V23.7891H742.492ZM745.531 16H746.984V26.3594L746.859 28H745.531V16ZM752.695 23.7031V23.8672C752.695 24.4818 752.622 25.0521 752.477 25.5781C752.331 26.099 752.117 26.5521 751.836 26.9375C751.555 27.3229 751.211 27.6224 750.805 27.8359C750.398 28.0495 749.932 28.1562 749.406 28.1562C748.87 28.1562 748.398 28.0651 747.992 27.8828C747.591 27.6953 747.253 27.4271 746.977 27.0781C746.701 26.7292 746.479 26.3073 746.312 25.8125C746.151 25.3177 746.039 24.7604 745.977 24.1406V23.4219C746.039 22.7969 746.151 22.237 746.312 21.7422C746.479 21.2474 746.701 20.8255 746.977 20.4766C747.253 20.1224 747.591 19.8542 747.992 19.6719C748.393 19.4844 748.859 19.3906 749.391 19.3906C749.922 19.3906 750.393 19.4948 750.805 19.7031C751.216 19.9062 751.56 20.1979 751.836 20.5781C752.117 20.9583 752.331 21.4141 752.477 21.9453C752.622 22.4714 752.695 23.0573 752.695 23.7031ZM751.242 23.8672V23.7031C751.242 23.2812 751.203 22.8854 751.125 22.5156C751.047 22.1406 750.922 21.8125 750.75 21.5312C750.578 21.2448 750.352 21.0208 750.07 20.8594C749.789 20.6927 749.443 20.6094 749.031 20.6094C748.667 20.6094 748.349 20.6719 748.078 20.7969C747.812 20.9219 747.586 21.0911 747.398 21.3047C747.211 21.513 747.057 21.7526 746.938 22.0234C746.823 22.2891 746.737 22.5651 746.68 22.8516V24.7344C746.763 25.099 746.898 25.4505 747.086 25.7891C747.279 26.1224 747.534 26.3958 747.852 26.6094C748.174 26.8229 748.573 26.9297 749.047 26.9297C749.438 26.9297 749.771 26.8516 750.047 26.6953C750.328 26.5339 750.555 26.3125 750.727 26.0312C750.904 25.75 751.034 25.4245 751.117 25.0547C751.201 24.6849 751.242 24.2891 751.242 23.8672ZM754.141 23.8672V23.6875C754.141 23.0781 754.229 22.513 754.406 21.9922C754.583 21.4661 754.839 21.0104 755.172 20.625C755.505 20.2344 755.909 19.9323 756.383 19.7188C756.857 19.5 757.388 19.3906 757.977 19.3906C758.57 19.3906 759.104 19.5 759.578 19.7188C760.057 19.9323 760.464 20.2344 760.797 20.625C761.135 21.0104 761.393 21.4661 761.57 21.9922C761.747 22.513 761.836 23.0781 761.836 23.6875V23.8672C761.836 24.4766 761.747 25.0417 761.57 25.5625C761.393 26.0833 761.135 26.5391 760.797 26.9297C760.464 27.3151 760.06 27.6172 759.586 27.8359C759.117 28.0495 758.586 28.1562 757.992 28.1562C757.398 28.1562 756.865 28.0495 756.391 27.8359C755.917 27.6172 755.51 27.3151 755.172 26.9297C754.839 26.5391 754.583 26.0833 754.406 25.5625C754.229 25.0417 754.141 24.4766 754.141 23.8672ZM755.586 23.6875V23.8672C755.586 24.2891 755.635 24.6875 755.734 25.0625C755.833 25.4323 755.982 25.7604 756.18 26.0469C756.383 26.3333 756.635 26.5599 756.938 26.7266C757.24 26.888 757.591 26.9688 757.992 26.9688C758.388 26.9688 758.734 26.888 759.031 26.7266C759.333 26.5599 759.583 26.3333 759.781 26.0469C759.979 25.7604 760.128 25.4323 760.227 25.0625C760.331 24.6875 760.383 24.2891 760.383 23.8672V23.6875C760.383 23.2708 760.331 22.8776 760.227 22.5078C760.128 22.1328 759.977 21.8021 759.773 21.5156C759.576 21.224 759.326 20.9948 759.023 20.8281C758.727 20.6615 758.378 20.5781 757.977 20.5781C757.581 20.5781 757.232 20.6615 756.93 20.8281C756.633 20.9948 756.383 21.224 756.18 21.5156C755.982 21.8021 755.833 22.1328 755.734 22.5078C755.635 22.8776 755.586 23.2708 755.586 23.6875ZM768.82 26.0469V19.5469H770.273V28H768.891L768.82 26.0469ZM769.094 24.2656L769.695 24.25C769.695 24.8125 769.635 25.3333 769.516 25.8125C769.401 26.2865 769.214 26.6979 768.953 27.0469C768.693 27.3958 768.352 27.6693 767.93 27.8672C767.508 28.0599 766.995 28.1562 766.391 28.1562C765.979 28.1562 765.602 28.0964 765.258 27.9766C764.919 27.8568 764.628 27.6719 764.383 27.4219C764.138 27.1719 763.948 26.8464 763.812 26.4453C763.682 26.0443 763.617 25.5625 763.617 25V19.5469H765.062V25.0156C765.062 25.3958 765.104 25.7109 765.188 25.9609C765.276 26.2057 765.393 26.401 765.539 26.5469C765.69 26.6875 765.857 26.7865 766.039 26.8438C766.227 26.901 766.419 26.9297 766.617 26.9297C767.232 26.9297 767.719 26.8125 768.078 26.5781C768.438 26.3385 768.695 26.0182 768.852 25.6172C769.013 25.2109 769.094 24.7604 769.094 24.2656ZM776.016 19.5469V20.6562H771.445V19.5469H776.016ZM772.992 17.4922H774.438V25.9062C774.438 26.1927 774.482 26.4089 774.57 26.5547C774.659 26.7005 774.773 26.7969 774.914 26.8438C775.055 26.8906 775.206 26.9141 775.367 26.9141C775.487 26.9141 775.612 26.9036 775.742 26.8828C775.878 26.8568 775.979 26.8359 776.047 26.8203L776.055 28C775.94 28.0365 775.789 28.0703 775.602 28.1016C775.419 28.138 775.198 28.1562 774.938 28.1562C774.583 28.1562 774.258 28.0859 773.961 27.9453C773.664 27.8047 773.427 27.5703 773.25 27.2422C773.078 26.9089 772.992 26.4609 772.992 25.8984V17.4922Z" fill="#222222"/>
<path d="M910.273 23.5859C911.003 24.3151 911.888 24.6797 912.93 24.6797C913.971 24.6797 914.857 24.3151 915.586 23.5859C916.315 22.8568 916.68 21.9714 916.68 20.9297C916.68 19.888 916.315 19.0026 915.586 18.2734C914.857 17.5443 913.971 17.1797 912.93 17.1797C911.888 17.1797 911.003 17.5443 910.273 18.2734C909.544 19.0026 909.18 19.888 909.18 20.9297C909.18 21.9714 909.544 22.8568 910.273 23.5859ZM917.93 24.6797L922.07 28.8203L920.82 30.0703L916.68 25.9297V25.2656L916.445 25.0312C915.456 25.8906 914.284 26.3203 912.93 26.3203C911.419 26.3203 910.13 25.7995 909.062 24.7578C908.021 23.7161 907.5 22.4401 907.5 20.9297C907.5 19.4193 908.021 18.1432 909.062 17.1016C910.13 16.0339 911.419 15.5 912.93 15.5C914.44 15.5 915.716 16.0339 916.758 17.1016C917.799 18.1432 918.32 19.4193 918.32 20.9297C918.32 21.4766 918.19 22.1016 917.93 22.8047C917.669 23.4818 917.37 24.0286 917.031 24.4453L917.266 24.6797H917.93Z" fill="#2A2C1F"/>
<path d="M936.383 25.125C936.383 24.8594 936.341 24.625 936.258 24.4219C936.18 24.2135 936.039 24.026 935.836 23.8594C935.638 23.6927 935.362 23.5339 935.008 23.3828C934.659 23.2318 934.216 23.0781 933.68 22.9219C933.117 22.7552 932.609 22.5703 932.156 22.3672C931.703 22.1589 931.315 21.9219 930.992 21.6562C930.669 21.3906 930.422 21.0859 930.25 20.7422C930.078 20.3984 929.992 20.0052 929.992 19.5625C929.992 19.1198 930.083 18.7109 930.266 18.3359C930.448 17.9609 930.708 17.6354 931.047 17.3594C931.391 17.0781 931.799 16.8594 932.273 16.7031C932.747 16.5469 933.276 16.4688 933.859 16.4688C934.714 16.4688 935.438 16.6328 936.031 16.9609C936.63 17.2839 937.086 17.7083 937.398 18.2344C937.711 18.7552 937.867 19.3125 937.867 19.9062H936.367C936.367 19.4792 936.276 19.1016 936.094 18.7734C935.911 18.4401 935.635 18.1797 935.266 17.9922C934.896 17.7995 934.427 17.7031 933.859 17.7031C933.323 17.7031 932.88 17.7839 932.531 17.9453C932.182 18.1068 931.922 18.3255 931.75 18.6016C931.583 18.8776 931.5 19.1927 931.5 19.5469C931.5 19.7865 931.549 20.0052 931.648 20.2031C931.753 20.3958 931.911 20.5755 932.125 20.7422C932.344 20.9089 932.62 21.0625 932.953 21.2031C933.292 21.3438 933.695 21.4792 934.164 21.6094C934.81 21.7917 935.367 21.9948 935.836 22.2188C936.305 22.4427 936.69 22.6953 936.992 22.9766C937.299 23.2526 937.526 23.5677 937.672 23.9219C937.823 24.2708 937.898 24.6667 937.898 25.1094C937.898 25.5729 937.805 25.9922 937.617 26.3672C937.43 26.7422 937.161 27.0625 936.812 27.3281C936.464 27.5938 936.044 27.7995 935.555 27.9453C935.07 28.0859 934.529 28.1562 933.93 28.1562C933.404 28.1562 932.885 28.0833 932.375 27.9375C931.87 27.7917 931.409 27.5729 930.992 27.2812C930.581 26.9896 930.25 26.6302 930 26.2031C929.755 25.7708 929.633 25.2708 929.633 24.7031H931.133C931.133 25.0938 931.208 25.4297 931.359 25.7109C931.51 25.987 931.716 26.2161 931.977 26.3984C932.242 26.5807 932.542 26.7161 932.875 26.8047C933.214 26.888 933.565 26.9297 933.93 26.9297C934.456 26.9297 934.901 26.8568 935.266 26.7109C935.63 26.5651 935.906 26.3568 936.094 26.0859C936.286 25.8151 936.383 25.4948 936.383 25.125ZM943.109 28.1562C942.521 28.1562 941.987 28.0573 941.508 27.8594C941.034 27.6562 940.625 27.3724 940.281 27.0078C939.943 26.6432 939.682 26.2109 939.5 25.7109C939.318 25.2109 939.227 24.6641 939.227 24.0703V23.7422C939.227 23.0547 939.328 22.4427 939.531 21.9062C939.734 21.3646 940.01 20.9062 940.359 20.5312C940.708 20.1562 941.104 19.8724 941.547 19.6797C941.99 19.487 942.448 19.3906 942.922 19.3906C943.526 19.3906 944.047 19.4948 944.484 19.7031C944.927 19.9115 945.289 20.2031 945.57 20.5781C945.852 20.9479 946.06 21.3854 946.195 21.8906C946.331 22.3906 946.398 22.9375 946.398 23.5312V24.1797H940.086V23H944.953V22.8906C944.932 22.5156 944.854 22.151 944.719 21.7969C944.589 21.4427 944.38 21.151 944.094 20.9219C943.807 20.6927 943.417 20.5781 942.922 20.5781C942.594 20.5781 942.292 20.6484 942.016 20.7891C941.74 20.9245 941.503 21.1276 941.305 21.3984C941.107 21.6693 940.953 22 940.844 22.3906C940.734 22.7812 940.68 23.2318 940.68 23.7422V24.0703C940.68 24.4714 940.734 24.849 940.844 25.2031C940.958 25.5521 941.122 25.8594 941.336 26.125C941.555 26.3906 941.818 26.599 942.125 26.75C942.438 26.901 942.792 26.9766 943.188 26.9766C943.698 26.9766 944.13 26.8724 944.484 26.6641C944.839 26.4557 945.148 26.1771 945.414 25.8281L946.289 26.5234C946.107 26.7995 945.875 27.0625 945.594 27.3125C945.312 27.5625 944.966 27.7656 944.555 27.9219C944.148 28.0781 943.667 28.1562 943.109 28.1562ZM953.07 26.5547V22.2031C953.07 21.8698 953.003 21.5807 952.867 21.3359C952.737 21.0859 952.539 20.8932 952.273 20.7578C952.008 20.6224 951.68 20.5547 951.289 20.5547C950.924 20.5547 950.604 20.6172 950.328 20.7422C950.057 20.8672 949.844 21.0312 949.688 21.2344C949.536 21.4375 949.461 21.6562 949.461 21.8906H948.016C948.016 21.5885 948.094 21.2891 948.25 20.9922C948.406 20.6953 948.63 20.4271 948.922 20.1875C949.219 19.9427 949.573 19.75 949.984 19.6094C950.401 19.4635 950.865 19.3906 951.375 19.3906C951.99 19.3906 952.531 19.4948 953 19.7031C953.474 19.9115 953.844 20.2266 954.109 20.6484C954.38 21.0651 954.516 21.5885 954.516 22.2188V26.1562C954.516 26.4375 954.539 26.737 954.586 27.0547C954.638 27.3724 954.714 27.6458 954.812 27.875V28H953.305C953.232 27.8333 953.174 27.612 953.133 27.3359C953.091 27.0547 953.07 26.7943 953.07 26.5547ZM953.32 22.875L953.336 23.8906H951.875C951.464 23.8906 951.096 23.9245 950.773 23.9922C950.451 24.0547 950.18 24.151 949.961 24.2812C949.742 24.4115 949.576 24.5755 949.461 24.7734C949.346 24.9661 949.289 25.1927 949.289 25.4531C949.289 25.7188 949.349 25.9609 949.469 26.1797C949.589 26.3984 949.768 26.5729 950.008 26.7031C950.253 26.8281 950.552 26.8906 950.906 26.8906C951.349 26.8906 951.74 26.7969 952.078 26.6094C952.417 26.4219 952.685 26.1927 952.883 25.9219C953.086 25.651 953.195 25.388 953.211 25.1328L953.828 25.8281C953.792 26.0469 953.693 26.2891 953.531 26.5547C953.37 26.8203 953.154 27.0755 952.883 27.3203C952.617 27.5599 952.299 27.7604 951.93 27.9219C951.565 28.0781 951.154 28.1562 950.695 28.1562C950.122 28.1562 949.62 28.0443 949.188 27.8203C948.76 27.5964 948.427 27.2969 948.188 26.9219C947.953 26.5417 947.836 26.1172 947.836 25.6484C947.836 25.1953 947.924 24.7969 948.102 24.4531C948.279 24.1042 948.534 23.8151 948.867 23.5859C949.201 23.3516 949.602 23.1745 950.07 23.0547C950.539 22.9349 951.062 22.875 951.641 22.875H953.32ZM958.234 20.875V28H956.789V19.5469H958.195L958.234 20.875ZM960.875 19.5L960.867 20.8438C960.747 20.8177 960.633 20.8021 960.523 20.7969C960.419 20.7865 960.299 20.7812 960.164 20.7812C959.831 20.7812 959.536 20.8333 959.281 20.9375C959.026 21.0417 958.81 21.1875 958.633 21.375C958.456 21.5625 958.315 21.7865 958.211 22.0469C958.112 22.3021 958.047 22.5833 958.016 22.8906L957.609 23.125C957.609 22.6146 957.659 22.1354 957.758 21.6875C957.862 21.2396 958.021 20.8438 958.234 20.5C958.448 20.151 958.719 19.8802 959.047 19.6875C959.38 19.4896 959.776 19.3906 960.234 19.3906C960.339 19.3906 960.458 19.4036 960.594 19.4297C960.729 19.4505 960.823 19.474 960.875 19.5ZM965.438 26.9688C965.781 26.9688 966.099 26.8984 966.391 26.7578C966.682 26.6172 966.922 26.4245 967.109 26.1797C967.297 25.9297 967.404 25.6458 967.43 25.3281H968.805C968.779 25.8281 968.609 26.2943 968.297 26.7266C967.99 27.1536 967.586 27.5 967.086 27.7656C966.586 28.026 966.036 28.1562 965.438 28.1562C964.802 28.1562 964.247 28.0443 963.773 27.8203C963.305 27.5964 962.914 27.2891 962.602 26.8984C962.294 26.5078 962.062 26.0599 961.906 25.5547C961.755 25.0443 961.68 24.5052 961.68 23.9375V23.6094C961.68 23.0417 961.755 22.5052 961.906 22C962.062 21.4896 962.294 21.0391 962.602 20.6484C962.914 20.2578 963.305 19.9505 963.773 19.7266C964.247 19.5026 964.802 19.3906 965.438 19.3906C966.099 19.3906 966.677 19.526 967.172 19.7969C967.667 20.0625 968.055 20.4271 968.336 20.8906C968.622 21.349 968.779 21.8698 968.805 22.4531H967.43C967.404 22.1042 967.305 21.7891 967.133 21.5078C966.966 21.2266 966.737 21.0026 966.445 20.8359C966.159 20.6641 965.823 20.5781 965.438 20.5781C964.995 20.5781 964.622 20.6667 964.32 20.8438C964.023 21.0156 963.786 21.25 963.609 21.5469C963.438 21.8385 963.312 22.1641 963.234 22.5234C963.161 22.8776 963.125 23.2396 963.125 23.6094V23.9375C963.125 24.3073 963.161 24.6719 963.234 25.0312C963.307 25.3906 963.43 25.7161 963.602 26.0078C963.779 26.2995 964.016 26.5339 964.312 26.7109C964.615 26.8828 964.99 26.9688 965.438 26.9688ZM971.875 16V28H970.43V16H971.875ZM971.531 23.4531L970.93 23.4297C970.935 22.8516 971.021 22.3177 971.188 21.8281C971.354 21.3333 971.589 20.9036 971.891 20.5391C972.193 20.1745 972.552 19.8932 972.969 19.6953C973.391 19.4922 973.857 19.3906 974.367 19.3906C974.784 19.3906 975.159 19.4479 975.492 19.5625C975.826 19.6719 976.109 19.849 976.344 20.0938C976.583 20.3385 976.766 20.6562 976.891 21.0469C977.016 21.4323 977.078 21.9036 977.078 22.4609V28H975.625V22.4453C975.625 22.0026 975.56 21.6484 975.43 21.3828C975.299 21.112 975.109 20.9167 974.859 20.7969C974.609 20.6719 974.302 20.6094 973.938 20.6094C973.578 20.6094 973.25 20.6849 972.953 20.8359C972.661 20.987 972.409 21.1953 972.195 21.4609C971.987 21.7266 971.823 22.0312 971.703 22.375C971.589 22.7135 971.531 23.0729 971.531 23.4531Z" fill="#2A2C1F"/>
<path d="M530.75 21.5156V22.7422H524.594V21.5156H530.75ZM524.828 16.625V28H523.32V16.625H524.828ZM532.062 16.625V28H530.562V16.625H532.062ZM534.141 23.8672V23.6875C534.141 23.0781 534.229 22.513 534.406 21.9922C534.583 21.4661 534.839 21.0104 535.172 20.625C535.505 20.2344 535.909 19.9323 536.383 19.7188C536.857 19.5 537.388 19.3906 537.977 19.3906C538.57 19.3906 539.104 19.5 539.578 19.7188C540.057 19.9323 540.464 20.2344 540.797 20.625C541.135 21.0104 541.393 21.4661 541.57 21.9922C541.747 22.513 541.836 23.0781 541.836 23.6875V23.8672C541.836 24.4766 541.747 25.0417 541.57 25.5625C541.393 26.0833 541.135 26.5391 540.797 26.9297C540.464 27.3151 540.06 27.6172 539.586 27.8359C539.117 28.0495 538.586 28.1562 537.992 28.1562C537.398 28.1562 536.865 28.0495 536.391 27.8359C535.917 27.6172 535.51 27.3151 535.172 26.9297C534.839 26.5391 534.583 26.0833 534.406 25.5625C534.229 25.0417 534.141 24.4766 534.141 23.8672ZM535.586 23.6875V23.8672C535.586 24.2891 535.635 24.6875 535.734 25.0625C535.833 25.4323 535.982 25.7604 536.18 26.0469C536.383 26.3333 536.635 26.5599 536.938 26.7266C537.24 26.888 537.591 26.9688 537.992 26.9688C538.388 26.9688 538.734 26.888 539.031 26.7266C539.333 26.5599 539.583 26.3333 539.781 26.0469C539.979 25.7604 540.128 25.4323 540.227 25.0625C540.331 24.6875 540.383 24.2891 540.383 23.8672V23.6875C540.383 23.2708 540.331 22.8776 540.227 22.5078C540.128 22.1328 539.977 21.8021 539.773 21.5156C539.576 21.224 539.326 20.9948 539.023 20.8281C538.727 20.6615 538.378 20.5781 537.977 20.5781C537.581 20.5781 537.232 20.6615 536.93 20.8281C536.633 20.9948 536.383 21.224 536.18 21.5156C535.982 21.8021 535.833 22.1328 535.734 22.5078C535.635 22.8776 535.586 23.2708 535.586 23.6875ZM545.086 21.2266V28H543.633V19.5469H545.008L545.086 21.2266ZM544.789 23.4531L544.117 23.4297C544.122 22.8516 544.198 22.3177 544.344 21.8281C544.49 21.3333 544.706 20.9036 544.992 20.5391C545.279 20.1745 545.635 19.8932 546.062 19.6953C546.49 19.4922 546.984 19.3906 547.547 19.3906C547.943 19.3906 548.307 19.4479 548.641 19.5625C548.974 19.6719 549.263 19.8464 549.508 20.0859C549.753 20.3255 549.943 20.6328 550.078 21.0078C550.214 21.3828 550.281 21.8359 550.281 22.3672V28H548.836V22.4375C548.836 21.9948 548.76 21.6406 548.609 21.375C548.464 21.1094 548.255 20.9167 547.984 20.7969C547.714 20.6719 547.396 20.6094 547.031 20.6094C546.604 20.6094 546.247 20.6849 545.961 20.8359C545.674 20.987 545.445 21.1953 545.273 21.4609C545.102 21.7266 544.977 22.0312 544.898 22.375C544.826 22.7135 544.789 23.0729 544.789 23.4531ZM550.266 22.6562L549.297 22.9531C549.302 22.4896 549.378 22.0443 549.523 21.6172C549.674 21.1901 549.891 20.8099 550.172 20.4766C550.458 20.1432 550.81 19.8802 551.227 19.6875C551.643 19.4896 552.12 19.3906 552.656 19.3906C553.109 19.3906 553.51 19.4505 553.859 19.5703C554.214 19.6901 554.51 19.875 554.75 20.125C554.995 20.3698 555.18 20.6849 555.305 21.0703C555.43 21.4557 555.492 21.9141 555.492 22.4453V28H554.039V22.4297C554.039 21.9557 553.964 21.5885 553.812 21.3281C553.667 21.0625 553.458 20.8776 553.188 20.7734C552.922 20.6641 552.604 20.6094 552.234 20.6094C551.917 20.6094 551.635 20.6641 551.391 20.7734C551.146 20.8828 550.94 21.0339 550.773 21.2266C550.607 21.4141 550.479 21.6302 550.391 21.875C550.307 22.1198 550.266 22.3802 550.266 22.6562ZM561.188 28.1562C560.599 28.1562 560.065 28.0573 559.586 27.8594C559.112 27.6562 558.703 27.3724 558.359 27.0078C558.021 26.6432 557.76 26.2109 557.578 25.7109C557.396 25.2109 557.305 24.6641 557.305 24.0703V23.7422C557.305 23.0547 557.406 22.4427 557.609 21.9062C557.812 21.3646 558.089 20.9062 558.438 20.5312C558.786 20.1562 559.182 19.8724 559.625 19.6797C560.068 19.487 560.526 19.3906 561 19.3906C561.604 19.3906 562.125 19.4948 562.562 19.7031C563.005 19.9115 563.367 20.2031 563.648 20.5781C563.93 20.9479 564.138 21.3854 564.273 21.8906C564.409 22.3906 564.477 22.9375 564.477 23.5312V24.1797H558.164V23H563.031V22.8906C563.01 22.5156 562.932 22.151 562.797 21.7969C562.667 21.4427 562.458 21.151 562.172 20.9219C561.885 20.6927 561.495 20.5781 561 20.5781C560.672 20.5781 560.37 20.6484 560.094 20.7891C559.818 20.9245 559.581 21.1276 559.383 21.3984C559.185 21.6693 559.031 22 558.922 22.3906C558.812 22.7812 558.758 23.2318 558.758 23.7422V24.0703C558.758 24.4714 558.812 24.849 558.922 25.2031C559.036 25.5521 559.201 25.8594 559.414 26.125C559.633 26.3906 559.896 26.599 560.203 26.75C560.516 26.901 560.87 26.9766 561.266 26.9766C561.776 26.9766 562.208 26.8724 562.562 26.6641C562.917 26.4557 563.227 26.1771 563.492 25.8281L564.367 26.5234C564.185 26.7995 563.953 27.0625 563.672 27.3125C563.391 27.5625 563.044 27.7656 562.633 27.9219C562.227 28.0781 561.745 28.1562 561.188 28.1562Z" fill="#2A2C1F"/>
<path d="M820.188 24.3828H821.688C821.609 25.1016 821.404 25.7448 821.07 26.3125C820.737 26.8802 820.266 27.3307 819.656 27.6641C819.047 27.9922 818.286 28.1562 817.375 28.1562C816.708 28.1562 816.102 28.0312 815.555 27.7812C815.013 27.5312 814.547 27.1771 814.156 26.7188C813.766 26.2552 813.464 25.7005 813.25 25.0547C813.042 24.4036 812.938 23.6797 812.938 22.8828V21.75C812.938 20.9531 813.042 20.2318 813.25 19.5859C813.464 18.9349 813.768 18.3776 814.164 17.9141C814.565 17.4505 815.047 17.0938 815.609 16.8438C816.172 16.5938 816.805 16.4688 817.508 16.4688C818.367 16.4688 819.094 16.6302 819.688 16.9531C820.281 17.276 820.742 17.724 821.07 18.2969C821.404 18.8646 821.609 19.5234 821.688 20.2734H820.188C820.115 19.7422 819.979 19.2865 819.781 18.9062C819.583 18.5208 819.302 18.224 818.938 18.0156C818.573 17.8073 818.096 17.7031 817.508 17.7031C817.003 17.7031 816.557 17.7995 816.172 17.9922C815.792 18.1849 815.471 18.4583 815.211 18.8125C814.956 19.1667 814.763 19.5911 814.633 20.0859C814.503 20.5807 814.438 21.1302 814.438 21.7344V22.8828C814.438 23.4401 814.495 23.9635 814.609 24.4531C814.729 24.9427 814.909 25.3724 815.148 25.7422C815.388 26.112 815.693 26.4036 816.062 26.6172C816.432 26.8255 816.87 26.9297 817.375 26.9297C818.016 26.9297 818.526 26.8281 818.906 26.625C819.286 26.4219 819.573 26.1302 819.766 25.75C819.964 25.3698 820.104 24.9141 820.188 24.3828ZM823.141 23.8672V23.6875C823.141 23.0781 823.229 22.513 823.406 21.9922C823.583 21.4661 823.839 21.0104 824.172 20.625C824.505 20.2344 824.909 19.9323 825.383 19.7188C825.857 19.5 826.388 19.3906 826.977 19.3906C827.57 19.3906 828.104 19.5 828.578 19.7188C829.057 19.9323 829.464 20.2344 829.797 20.625C830.135 21.0104 830.393 21.4661 830.57 21.9922C830.747 22.513 830.836 23.0781 830.836 23.6875V23.8672C830.836 24.4766 830.747 25.0417 830.57 25.5625C830.393 26.0833 830.135 26.5391 829.797 26.9297C829.464 27.3151 829.06 27.6172 828.586 27.8359C828.117 28.0495 827.586 28.1562 826.992 28.1562C826.398 28.1562 825.865 28.0495 825.391 27.8359C824.917 27.6172 824.51 27.3151 824.172 26.9297C823.839 26.5391 823.583 26.0833 823.406 25.5625C823.229 25.0417 823.141 24.4766 823.141 23.8672ZM824.586 23.6875V23.8672C824.586 24.2891 824.635 24.6875 824.734 25.0625C824.833 25.4323 824.982 25.7604 825.18 26.0469C825.383 26.3333 825.635 26.5599 825.938 26.7266C826.24 26.888 826.591 26.9688 826.992 26.9688C827.388 26.9688 827.734 26.888 828.031 26.7266C828.333 26.5599 828.583 26.3333 828.781 26.0469C828.979 25.7604 829.128 25.4323 829.227 25.0625C829.331 24.6875 829.383 24.2891 829.383 23.8672V23.6875C829.383 23.2708 829.331 22.8776 829.227 22.5078C829.128 22.1328 828.977 21.8021 828.773 21.5156C828.576 21.224 828.326 20.9948 828.023 20.8281C827.727 20.6615 827.378 20.5781 826.977 20.5781C826.581 20.5781 826.232 20.6615 825.93 20.8281C825.633 20.9948 825.383 21.224 825.18 21.5156C824.982 21.8021 824.833 22.1328 824.734 22.5078C824.635 22.8776 824.586 23.2708 824.586 23.6875ZM834.094 21.3516V28H832.648V19.5469H834.016L834.094 21.3516ZM833.75 23.4531L833.148 23.4297C833.154 22.8516 833.24 22.3177 833.406 21.8281C833.573 21.3333 833.807 20.9036 834.109 20.5391C834.411 20.1745 834.771 19.8932 835.188 19.6953C835.609 19.4922 836.076 19.3906 836.586 19.3906C837.003 19.3906 837.378 19.4479 837.711 19.5625C838.044 19.6719 838.328 19.849 838.562 20.0938C838.802 20.3385 838.984 20.6562 839.109 21.0469C839.234 21.4323 839.297 21.9036 839.297 22.4609V28H837.844V22.4453C837.844 22.0026 837.779 21.6484 837.648 21.3828C837.518 21.112 837.328 20.9167 837.078 20.7969C836.828 20.6719 836.521 20.6094 836.156 20.6094C835.797 20.6094 835.469 20.6849 835.172 20.8359C834.88 20.987 834.628 21.1953 834.414 21.4609C834.206 21.7266 834.042 22.0312 833.922 22.375C833.807 22.7135 833.75 23.0729 833.75 23.4531ZM845.031 19.5469V20.6562H840.461V19.5469H845.031ZM842.008 17.4922H843.453V25.9062C843.453 26.1927 843.497 26.4089 843.586 26.5547C843.674 26.7005 843.789 26.7969 843.93 26.8438C844.07 26.8906 844.221 26.9141 844.383 26.9141C844.503 26.9141 844.628 26.9036 844.758 26.8828C844.893 26.8568 844.995 26.8359 845.062 26.8203L845.07 28C844.956 28.0365 844.805 28.0703 844.617 28.1016C844.435 28.138 844.214 28.1562 843.953 28.1562C843.599 28.1562 843.273 28.0859 842.977 27.9453C842.68 27.8047 842.443 27.5703 842.266 27.2422C842.094 26.9089 842.008 26.4609 842.008 25.8984V17.4922ZM851.711 26.5547V22.2031C851.711 21.8698 851.643 21.5807 851.508 21.3359C851.378 21.0859 851.18 20.8932 850.914 20.7578C850.648 20.6224 850.32 20.5547 849.93 20.5547C849.565 20.5547 849.245 20.6172 848.969 20.7422C848.698 20.8672 848.484 21.0312 848.328 21.2344C848.177 21.4375 848.102 21.6562 848.102 21.8906H846.656C846.656 21.5885 846.734 21.2891 846.891 20.9922C847.047 20.6953 847.271 20.4271 847.562 20.1875C847.859 19.9427 848.214 19.75 848.625 19.6094C849.042 19.4635 849.505 19.3906 850.016 19.3906C850.63 19.3906 851.172 19.4948 851.641 19.7031C852.115 19.9115 852.484 20.2266 852.75 20.6484C853.021 21.0651 853.156 21.5885 853.156 22.2188V26.1562C853.156 26.4375 853.18 26.737 853.227 27.0547C853.279 27.3724 853.354 27.6458 853.453 27.875V28H851.945C851.872 27.8333 851.815 27.612 851.773 27.3359C851.732 27.0547 851.711 26.7943 851.711 26.5547ZM851.961 22.875L851.977 23.8906H850.516C850.104 23.8906 849.737 23.9245 849.414 23.9922C849.091 24.0547 848.82 24.151 848.602 24.2812C848.383 24.4115 848.216 24.5755 848.102 24.7734C847.987 24.9661 847.93 25.1927 847.93 25.4531C847.93 25.7188 847.99 25.9609 848.109 26.1797C848.229 26.3984 848.409 26.5729 848.648 26.7031C848.893 26.8281 849.193 26.8906 849.547 26.8906C849.99 26.8906 850.38 26.7969 850.719 26.6094C851.057 26.4219 851.326 26.1927 851.523 25.9219C851.727 25.651 851.836 25.388 851.852 25.1328L852.469 25.8281C852.432 26.0469 852.333 26.2891 852.172 26.5547C852.01 26.8203 851.794 27.0755 851.523 27.3203C851.258 27.5599 850.94 27.7604 850.57 27.9219C850.206 28.0781 849.794 28.1562 849.336 28.1562C848.763 28.1562 848.26 28.0443 847.828 27.8203C847.401 27.5964 847.068 27.2969 846.828 26.9219C846.594 26.5417 846.477 26.1172 846.477 25.6484C846.477 25.1953 846.565 24.7969 846.742 24.4531C846.919 24.1042 847.174 23.8151 847.508 23.5859C847.841 23.3516 848.242 23.1745 848.711 23.0547C849.18 22.9349 849.703 22.875 850.281 22.875H851.961ZM858.812 26.9688C859.156 26.9688 859.474 26.8984 859.766 26.7578C860.057 26.6172 860.297 26.4245 860.484 26.1797C860.672 25.9297 860.779 25.6458 860.805 25.3281H862.18C862.154 25.8281 861.984 26.2943 861.672 26.7266C861.365 27.1536 860.961 27.5 860.461 27.7656C859.961 28.026 859.411 28.1562 858.812 28.1562C858.177 28.1562 857.622 28.0443 857.148 27.8203C856.68 27.5964 856.289 27.2891 855.977 26.8984C855.669 26.5078 855.438 26.0599 855.281 25.5547C855.13 25.0443 855.055 24.5052 855.055 23.9375V23.6094C855.055 23.0417 855.13 22.5052 855.281 22C855.438 21.4896 855.669 21.0391 855.977 20.6484C856.289 20.2578 856.68 19.9505 857.148 19.7266C857.622 19.5026 858.177 19.3906 858.812 19.3906C859.474 19.3906 860.052 19.526 860.547 19.7969C861.042 20.0625 861.43 20.4271 861.711 20.8906C861.997 21.349 862.154 21.8698 862.18 22.4531H860.805C860.779 22.1042 860.68 21.7891 860.508 21.5078C860.341 21.2266 860.112 21.0026 859.82 20.8359C859.534 20.6641 859.198 20.5781 858.812 20.5781C858.37 20.5781 857.997 20.6667 857.695 20.8438C857.398 21.0156 857.161 21.25 856.984 21.5469C856.812 21.8385 856.688 22.1641 856.609 22.5234C856.536 22.8776 856.5 23.2396 856.5 23.6094V23.9375C856.5 24.3073 856.536 24.6719 856.609 25.0312C856.682 25.3906 856.805 25.7161 856.977 26.0078C857.154 26.2995 857.391 26.5339 857.688 26.7109C857.99 26.8828 858.365 26.9688 858.812 26.9688ZM867.344 19.5469V20.6562H862.773V19.5469H867.344ZM864.32 17.4922H865.766V25.9062C865.766 26.1927 865.81 26.4089 865.898 26.5547C865.987 26.7005 866.102 26.7969 866.242 26.8438C866.383 26.8906 866.534 26.9141 866.695 26.9141C866.815 26.9141 866.94 26.9036 867.07 26.8828C867.206 26.8568 867.307 26.8359 867.375 26.8203L867.383 28C867.268 28.0365 867.117 28.0703 866.93 28.1016C866.747 28.138 866.526 28.1562 866.266 28.1562C865.911 28.1562 865.586 28.0859 865.289 27.9453C864.992 27.8047 864.755 27.5703 864.578 27.2422C864.406 26.9089 864.32 26.4609 864.32 25.8984V17.4922Z" fill="#222222"/>
<defs>
<filter id="filter0_d_5_13" x="1001" y="0" width="108" height="50" filterUnits="userSpaceOnUse" color-interpolation-filters="sRGB">
<feFlood flood-opacity="0" result="BackgroundImageFix"/>
<feColorMatrix in="SourceAlpha" type="matrix" values="0 0 0 0 0 0 0 0 0 0 0 0 0 0 0 0 0 0 127 0" result="hardAlpha"/>
<feOffset dy="2"/>
<feGaussianBlur stdDeviation="2"/>
<feColorMatrix type="matrix" values="0 0 0 0 0 0 0 0 0 0 0 0 0 0 0 0 0 0 0.08 0"/>
<feBlend mode="normal" in2="BackgroundImageFix" result="effect1_dropShadow_5_13"/>
<feBlend mode="normal" in="SourceGraphic" in2="effect1_dropShadow_5_13" result="shape"/>
</filter>
</defs>
</svg>
